# xmcd
#
# Track frame offsets:
# 150
# 4467
# 21766
# 29149
# 48290
# 70624
# 101958
# 119582
# 140034
# 158739
# 175981
# 189668
#
# Disc length: 2905 seconds
#
#
# Revision: 0
# Processed by: cddbd v1.5.2PL0 Copyright (c) Steve Scherf et al.
# Submitted via: FreeRIP 2.95 
#
DISCID=ae0b570c
DTITLE=Les FATA  Morgane - Rhum Pomme
DYEAR=2003
DGENRE=
TTITLE0=intro
TTITLE1=C'etait un drole  d'homme
TTITLE2=A Paris
TTITLE3=Les Amants  Rouges
TTITLE4=A L'etage il y a un homme
TTITLE5=Du haut de la ville
TTITLE6=Les sorcieres
TTITLE7=Le collectionneur
TTITLE8=Lou
TTITLE9=La fin de l'automne
TTITLE10=Un cloun raté
TTITLE11=Monsieur Loyal
EXTD=les copain du fils mijo isabey
EXTT0=
EXTT1=
EXTT2=
EXTT3=
EXTT4=
EXTT5=
EXTT6=
EXTT7=
EXTT8=
EXTT9=
EXTT10=
EXTT11=
PLAYORDER=
